<svg width="1821" height="501" viewBox="0 0 1821 501" fill="none" xmlns="http://www.w3.org/2000/svg">
<path d="M352 156V337.5L339 330.5L319.5 319L302 305.5L278 286L252.5 262.5L232 239L214 218.5L205.5 205.5L200 178.5L194 153.5L189.5 129L187.5 100.5L184 68.5L200 82.5L216.5 95L234 106L252.5 117L270 124.5L291.5 134L310 141L329.75 148.75L352 156Z" fill="#91263A"/>
<path d="M383 153.5L370.5 160V337.5L379.5 335.5L383 153.5Z" fill="#91263A"/>
<path d="M371 151H353L330.5 144L309.5 135L285.5 124L260 113L236 102L213 88L197 74.5L260 102L317.5 124L353 131.5H374L405.5 120.5L455.5 99.5L519.5 74.5L544.5 64L519.5 165L529 77.5L495 94L473 105.5L453 116L431 127L413 135L391.5 144L371 151Z" fill="#91263A"/>
<path d="M125.5 13L179.5 103L172.5 55L250.5 83L285 94.5L272 76.5L237 42.5L276.5 67L314.5 88L308.5 63.5L296 29.5L319 58L345.5 83L354.5 58L361 29.5L365.5 58L375 83L409.5 47L422 29.5L405.5 88L472 47L433.5 94.5L507.5 73.5L549 58L538.5 108.5L545.5 88L591.5 13H125.5Z" fill="#91263A"/>
<path d="M132.5 154.5L127.5 123.5L138.5 154.5L152.5 182.5L167 204L180 219L220.5 270.5L247 300.5L277.5 328.5L308 352L338 371L368 385.5L399.25 364.75L430.5 344L467.5 318.5L488.5 301.5L506.5 286L518 273.5L542.5 251.5L514.5 295L496.25 318.5L478 342L446 376L427 395L398.5 417.5L368 440L339 426.5L303.5 402.5L272.5 376L245 347.5L215.5 311L195.5 282.5L177.5 254.5L161 226L147.5 200L138.5 177L132.5 154.5Z" fill="#91263A"/>
<path d="M38 179L0 37L4 30.5L11 34.5L37.5 131.5L49.5 128.5L22.5 32.5L26.5 24.5L35 29L60.5 124.5L70 122.5L45.5 26.5L49.5 18L57 22.5L83.5 120L93.5 116.5L68 19.5L72.5 12L78.5 16.5L117.5 159V169.5L111 177L98.5 180.5L162 415.5L160.5 425L156 435L145 438.5L134 432.5L128 426.5L63 190L51.5 191.5L43.5 188L38 179Z" fill="#91263A"/>
<path d="M556 436.5L545.5 429.5L541 419L582.5 267.5L560.5 261L622 30L630.5 20.5L643.5 15.5L663 20.5L676 33.5L680 44L577.5 426.5L569 436.5H556Z" fill="#91263A"/>
<path d="M804.25 24.25C812.25 24.25 820.917 24.6667 830.25 25.5C839.583 26.1667 847.833 27.25 855 28.75C855.167 29.4167 855.667 31.5833 856.5 35.25C857.333 38.75 858.25 42.75 859.25 47.25C860.417 51.5833 861.333 55.5833 862 59.25C862.833 62.75 863.25 64.9167 863.25 65.75C863.25 66.4167 862.583 67.1667 861.25 68C859.917 68.8333 858.5 69.25 857 69.25C856.333 69.25 855.667 69.25 855 69.25C854.5 69.0833 854 68.75 853.5 68.25C852.833 65.9167 851.583 62.9167 849.75 59.25C848.083 55.4167 845.5 51.6667 842 48C838.5 44.1667 833.833 41 828 38.5C822.333 36 815.167 34.75 806.5 34.75C795 34.75 785.75 37.9167 778.75 44.25C771.75 50.4167 766.667 58.5833 763.5 68.75C760.333 78.75 758.75 89.5 758.75 101C758.75 110.5 759.75 119.833 761.75 129C763.75 138.167 766.833 146.417 771 153.75C775.333 161.083 780.833 167 787.5 171.5C794.167 175.833 802.083 178 811.25 178C818.583 178 824.667 177 829.5 175C834.333 173 838.333 170.5 841.5 167.5C845 164.333 848 160.5 850.5 156C853 151.5 854.917 147.417 856.25 143.75C857.75 140.083 858.583 137.917 858.75 137.25C862.25 137.25 865.083 138.167 867.25 140C867.25 140.667 866.917 142.917 866.25 146.75C865.583 150.417 864.667 154.583 863.5 159.25C862.5 163.75 861.417 167.833 860.25 171.5C859.25 175 858.25 176.917 857.25 177.25C849.583 179.917 841.583 182.5 833.25 185C824.917 187.5 815.083 188.75 803.75 188.75C792.25 188.75 781.417 186.75 771.25 182.75C761.083 178.75 752.167 173.167 744.5 166C736.833 158.833 730.75 150.333 726.25 140.5C721.917 130.667 719.75 120 719.75 108.5C719.75 96.6667 721.917 85.6667 726.25 75.5C730.75 65.3333 736.833 56.4167 744.5 48.75C752.333 41.0833 761.333 35.0833 771.5 30.75C781.667 26.4167 792.583 24.25 804.25 24.25ZM939.301 77.75C950.634 77.75 960.551 80.1667 969.051 85C977.717 89.6667 984.467 96.0833 989.301 104.25C994.134 112.417 996.551 121.667 996.551 132C996.551 142.167 994.051 151.583 989.051 160.25C984.051 168.917 977.301 175.833 968.801 181C960.301 186.167 950.634 188.75 939.801 188.75C928.467 188.75 918.467 186.333 909.801 181.5C901.134 176.667 894.384 170.083 889.551 161.75C884.717 153.417 882.301 144.167 882.301 134C882.301 123.667 884.801 114.25 889.801 105.75C894.967 97.25 901.801 90.5 910.301 85.5C918.967 80.3333 928.634 77.75 939.301 77.75ZM936.551 88C932.051 88 928.467 89.3333 925.801 92C923.301 94.5 921.384 97.8333 920.051 102C918.884 106.167 918.051 110.667 917.551 115.5C917.217 120.167 917.051 124.75 917.051 129.25C917.051 134.583 917.551 140.167 918.551 146C919.551 151.667 921.051 157 923.051 162C925.051 166.833 927.634 170.833 930.801 174C933.967 177 937.801 178.5 942.301 178.5C946.801 178.5 950.301 177.25 952.801 174.75C955.467 172.083 957.467 168.75 958.801 164.75C960.134 160.583 960.967 156.167 961.301 151.5C961.801 146.667 962.051 142.083 962.051 137.75C962.051 132.25 961.551 126.667 960.551 121C959.551 115.167 957.967 109.75 955.801 104.75C953.801 99.75 951.217 95.75 948.051 92.75C944.884 89.5833 941.051 88 936.551 88ZM1096.94 78C1106.27 78 1113.27 80.1667 1117.94 84.5C1122.77 88.6667 1126.02 95.0833 1127.69 103.75C1129.36 112.25 1130.19 122.917 1130.19 135.75V151.5C1130.19 156.667 1130.27 161.167 1130.44 165C1130.61 168.833 1131.19 172 1132.19 174.5C1132.69 175.5 1133.94 176.333 1135.94 177C1138.11 177.667 1140.36 178.167 1142.69 178.5C1145.19 178.667 1146.94 178.833 1147.94 179C1148.61 179.833 1148.86 181.333 1148.69 183.5C1148.69 185.667 1148.44 187.167 1147.94 188C1143.27 187.5 1137.77 187.083 1131.44 186.75C1125.27 186.417 1119.61 186.25 1114.44 186.25C1109.27 186.25 1104.11 186.417 1098.94 186.75C1093.77 187.083 1088.77 187.5 1083.94 188C1083.44 187.167 1083.11 185.667 1082.94 183.5C1082.94 181.333 1083.27 179.833 1083.94 179C1085.61 178.833 1087.94 178.5 1090.94 178C1094.11 177.333 1096.02 176.167 1096.69 174.5C1097.52 172.333 1098.02 169.583 1098.19 166.25C1098.36 162.917 1098.44 159.083 1098.44 154.75C1098.44 154.25 1098.44 153.75 1098.44 153.25C1098.44 152.583 1098.44 152 1098.44 151.5V132.25C1098.44 126.417 1097.94 120.917 1096.94 115.75C1096.11 110.417 1094.52 106.167 1092.19 103C1089.86 99.6667 1086.52 98 1082.19 98C1079.02 98 1075.77 98.8333 1072.44 100.5C1069.11 102 1066.27 103.833 1063.94 106C1061.77 108 1060.69 109.833 1060.69 111.5V151.5C1060.69 156 1060.77 160.333 1060.94 164.5C1061.11 168.667 1061.69 172 1062.69 174.5C1063.19 175.5 1064.27 176.333 1065.94 177C1067.77 177.667 1069.69 178.167 1071.69 178.5C1073.86 178.667 1075.44 178.833 1076.44 179C1077.11 179.833 1077.36 181.333 1077.19 183.5C1077.19 185.667 1076.94 187.167 1076.44 188C1071.77 187.5 1066.61 187.083 1060.94 186.75C1055.27 186.417 1049.86 186.25 1044.69 186.25C1039.52 186.25 1033.86 186.417 1027.69 186.75C1021.69 187.083 1016.27 187.5 1011.44 188C1010.94 187.167 1010.61 185.667 1010.44 183.5C1010.44 181.333 1010.77 179.833 1011.44 179C1012.61 178.833 1014.27 178.667 1016.44 178.5C1018.77 178.167 1021.02 177.667 1023.19 177C1025.36 176.333 1026.61 175.5 1026.94 174.5C1027.94 172 1028.52 168.833 1028.69 165C1028.86 161.167 1028.94 156.667 1028.94 151.5V123.5C1028.94 122.667 1028.86 120.917 1028.69 118.25C1028.69 115.417 1028.52 112.583 1028.19 109.75C1027.86 106.75 1027.36 104.667 1026.69 103.5C1026.02 102.167 1024.52 101.167 1022.19 100.5C1020.02 99.8333 1017.86 99.3333 1015.69 99C1013.52 98.6667 1012.11 98.5 1011.44 98.5C1011.27 98.3333 1011.11 97.6667 1010.94 96.5C1010.77 95.1667 1010.77 93.9167 1010.94 92.75C1011.11 91.5833 1011.36 91 1011.69 91C1017.86 90.5 1023.94 89.5 1029.94 88C1036.11 86.5 1041.77 84.8333 1046.94 83C1052.11 81.1667 1056.19 79.5 1059.19 78C1060.02 78 1060.94 78.5833 1061.94 79.75C1062.94 80.75 1063.44 81.5833 1063.44 82.25C1063.27 82.9167 1062.94 84.4167 1062.44 86.75C1062.11 88.9167 1061.77 91 1061.44 93C1061.11 95 1060.94 96.0833 1060.94 96.25C1060.94 97.0833 1061.02 97.5833 1061.19 97.75C1061.52 97.75 1062.11 97.3333 1062.94 96.5C1065.27 93.8333 1068.36 91.0833 1072.19 88.25C1076.19 85.4167 1080.36 83 1084.69 81C1089.19 79 1093.27 78 1096.94 78ZM1250.45 93.75C1250.45 97.25 1249.2 100.667 1246.7 104C1244.2 107.333 1240.78 109 1236.45 109C1233.28 109 1230.53 107.75 1228.2 105.25C1225.86 102.583 1223.7 100.167 1221.7 98C1217.03 92.8333 1211.53 90.25 1205.2 90.25C1201.7 90.25 1198.61 92 1195.95 95.5C1193.45 99 1191.45 103.417 1189.95 108.75C1188.61 113.917 1187.95 119 1187.95 124C1187.95 135.333 1189.78 144.333 1193.45 151C1197.28 157.5 1201.86 162.083 1207.2 164.75C1212.7 167.417 1218.03 168.75 1223.2 168.75C1230.36 168.75 1236.03 167.417 1240.2 164.75C1244.36 161.917 1247.78 159.167 1250.45 156.5C1251.28 156.667 1251.95 157.25 1252.45 158.25C1253.11 159.25 1253.45 160.167 1253.45 161C1253.45 163.167 1253.2 164.667 1252.7 165.5C1251.2 167.667 1248.45 170.667 1244.45 174.5C1240.45 178.333 1235.36 181.75 1229.2 184.75C1223.2 187.75 1216.28 189.25 1208.45 189.25C1199.45 189.25 1191.03 187.25 1183.2 183.25C1175.36 179.083 1169.03 173.25 1164.2 165.75C1159.53 158.083 1157.2 148.917 1157.2 138.25C1157.2 130.75 1158.86 123.417 1162.2 116.25C1165.7 109.083 1170.45 102.583 1176.45 96.75C1182.45 90.9167 1189.2 86.25 1196.7 82.75C1204.36 79.25 1212.45 77.5 1220.95 77.5C1227.78 77.5 1233.28 78.0833 1237.45 79.25C1241.61 80.25 1244.36 81.1667 1245.7 82C1246.86 83.1667 1247.95 84.6667 1248.95 86.5C1249.95 88.1667 1250.45 90.5833 1250.45 93.75ZM1323.33 77.75C1334.67 77.75 1344.58 80.1667 1353.08 85C1361.75 89.6667 1368.5 96.0833 1373.33 104.25C1378.17 112.417 1380.58 121.667 1380.58 132C1380.58 142.167 1378.08 151.583 1373.08 160.25C1368.08 168.917 1361.33 175.833 1352.83 181C1344.33 186.167 1334.67 188.75 1323.83 188.75C1312.5 188.75 1302.5 186.333 1293.83 181.5C1285.17 176.667 1278.42 170.083 1273.58 161.75C1268.75 153.417 1266.33 144.167 1266.33 134C1266.33 123.667 1268.83 114.25 1273.83 105.75C1279 97.25 1285.83 90.5 1294.33 85.5C1303 80.3333 1312.67 77.75 1323.33 77.75ZM1320.58 88C1316.08 88 1312.5 89.3333 1309.83 92C1307.33 94.5 1305.42 97.8333 1304.08 102C1302.92 106.167 1302.08 110.667 1301.58 115.5C1301.25 120.167 1301.08 124.75 1301.08 129.25C1301.08 134.583 1301.58 140.167 1302.58 146C1303.58 151.667 1305.08 157 1307.08 162C1309.08 166.833 1311.67 170.833 1314.83 174C1318 177 1321.83 178.5 1326.33 178.5C1330.83 178.5 1334.33 177.25 1336.83 174.75C1339.5 172.083 1341.5 168.75 1342.83 164.75C1344.17 160.583 1345 156.167 1345.33 151.5C1345.83 146.667 1346.08 142.083 1346.08 137.75C1346.08 132.25 1345.58 126.667 1344.58 121C1343.58 115.167 1342 109.75 1339.83 104.75C1337.83 99.75 1335.25 95.75 1332.08 92.75C1328.92 89.5833 1325.08 88 1320.58 88ZM1476.97 77.75C1480.14 77.75 1483.06 78.0833 1485.72 78.75C1488.39 79.4167 1490.56 80.5 1492.22 82C1492.72 82.6667 1493.31 84.1667 1493.97 86.5C1494.64 88.8333 1494.97 91.3333 1494.97 94C1494.97 96.6667 1494.31 99.5 1492.97 102.5C1491.81 105.5 1490.14 108.083 1487.97 110.25C1485.81 112.25 1483.31 113.25 1480.47 113.25C1478.31 113.25 1476.39 112.583 1474.72 111.25C1473.06 109.75 1471.47 108.417 1469.97 107.25C1468.64 105.917 1467.31 104.75 1465.97 103.75C1464.81 102.583 1463.14 102 1460.97 102C1457.64 102 1454.72 103.333 1452.22 106C1449.89 108.5 1448.06 111.333 1446.72 114.5C1445.39 117.5 1444.72 119.917 1444.72 121.75V151.5C1444.72 156 1444.81 160.333 1444.97 164.5C1445.14 168.667 1445.72 172 1446.72 174.5C1447.22 175.5 1448.72 176.333 1451.22 177C1453.72 177.667 1456.31 178.167 1458.97 178.5C1461.81 178.667 1463.72 178.833 1464.72 179C1465.39 179.833 1465.64 181.333 1465.47 183.5C1465.47 185.667 1465.22 187.167 1464.72 188C1460.06 187.5 1454.14 187.083 1446.97 186.75C1439.97 186.417 1433.89 186.25 1428.72 186.25C1423.56 186.25 1417.89 186.417 1411.72 186.75C1405.72 187.083 1400.31 187.5 1395.47 188C1394.97 187.167 1394.64 185.667 1394.47 183.5C1394.47 181.333 1394.81 179.833 1395.47 179C1396.64 178.833 1398.31 178.667 1400.47 178.5C1402.81 178.167 1405.06 177.667 1407.22 177C1409.39 176.333 1410.64 175.5 1410.97 174.5C1411.97 172 1412.56 168.833 1412.72 165C1412.89 161.167 1412.97 156.667 1412.97 151.5V123.5C1412.97 122.667 1412.89 120.917 1412.72 118.25C1412.72 115.417 1412.56 112.583 1412.22 109.75C1411.89 106.75 1411.39 104.667 1410.72 103.5C1410.06 102.167 1408.56 101.167 1406.22 100.5C1404.06 99.8333 1401.89 99.3333 1399.72 99C1397.56 98.6667 1396.14 98.5 1395.47 98.5C1395.31 98.3333 1395.14 97.6667 1394.97 96.5C1394.81 95.1667 1394.81 93.9167 1394.97 92.75C1395.14 91.5833 1395.39 91 1395.72 91C1401.89 90.5 1407.97 89.5 1413.97 88C1420.14 86.5 1425.81 84.8333 1430.97 83C1436.14 81.1667 1440.22 79.5 1443.22 78C1444.06 78.1667 1444.97 78.8333 1445.97 80C1446.97 81.1667 1447.47 81.9167 1447.47 82.25C1447.31 82.9167 1446.97 84.5833 1446.47 87.25C1446.14 89.9167 1445.81 92.6667 1445.47 95.5C1445.14 98.3333 1444.97 100.333 1444.97 101.5C1444.97 102.167 1445.14 102.5 1445.47 102.5C1445.97 102.5 1446.31 102.417 1446.47 102.25C1448.47 98.75 1450.81 95.0833 1453.47 91.25C1456.31 87.4167 1459.64 84.25 1463.47 81.75C1467.31 79.0833 1471.81 77.75 1476.97 77.75ZM1567.15 78C1569.82 78 1571.82 78.0833 1573.15 78.25C1574.65 78.25 1575.9 78.3333 1576.9 78.5C1577.4 78.5 1577.73 77.8333 1577.9 76.5C1578.07 75.1667 1578.15 74 1578.15 73V50.75C1578.15 48.4167 1578.07 46.4167 1577.9 44.75C1577.73 43.0833 1577.23 41.1667 1576.4 39C1576.07 38 1574.9 37.1667 1572.9 36.5C1570.9 35.8333 1568.82 35.4167 1566.65 35.25C1564.48 34.9167 1562.9 34.75 1561.9 34.75C1561.4 34.75 1561.07 33.5833 1560.9 31.25C1560.9 28.75 1561.23 27.25 1561.9 26.75C1571.07 25.9167 1579.07 24.75 1585.9 23.25C1592.9 21.75 1598.4 20.4167 1602.4 19.25C1606.57 17.9167 1608.73 17.25 1608.9 17.25C1609.73 17.4167 1610.48 18 1611.15 19C1611.98 20 1612.48 20.8333 1612.65 21.5C1612.65 21.5 1612.15 23.9167 1611.15 28.75C1610.32 33.5833 1609.9 39.4167 1609.9 46.25V160.75C1609.9 162.583 1609.98 164.25 1610.15 165.75C1610.32 167.25 1610.98 168.667 1612.15 170C1613.15 171.167 1614.82 171.833 1617.15 172C1619.48 172.167 1621.32 172.25 1622.65 172.25C1622.82 172.25 1622.98 172.25 1623.15 172.25C1623.65 172.75 1623.9 173.833 1623.9 175.5C1623.9 177.167 1623.4 178.75 1622.4 180.25C1618.73 180.583 1614.65 181.25 1610.15 182.25C1605.82 183.083 1601.48 184 1597.15 185C1592.98 186 1589.32 186.833 1586.15 187.5C1583.15 188.333 1581.23 188.75 1580.4 188.75C1578.9 188.75 1578.15 186.75 1578.15 182.75V179C1578.15 178.667 1578.07 178.333 1577.9 178C1577.9 177.5 1577.73 177.417 1577.4 177.75C1576.07 178.583 1573.82 179.917 1570.65 181.75C1567.65 183.583 1564.07 185.25 1559.9 186.75C1555.9 188.25 1551.73 189 1547.4 189C1539.57 189 1532.23 186.75 1525.4 182.25C1518.73 177.75 1513.32 171.667 1509.15 164C1505.15 156.333 1503.15 147.75 1503.15 138.25C1503.15 127.917 1505.4 119 1509.9 111.5C1514.4 103.833 1520.07 97.5833 1526.9 92.75C1533.73 87.75 1540.73 84.0833 1547.9 81.75C1555.23 79.25 1561.65 78 1567.15 78ZM1559.15 90.5C1553.98 90.5 1549.82 92.25 1546.65 95.75C1543.65 99.25 1541.4 103.833 1539.9 109.5C1538.57 115.167 1537.9 121.25 1537.9 127.75C1537.9 141.083 1540.07 152 1544.4 160.5C1548.9 169 1554.98 173.25 1562.65 173.25C1564.98 173.25 1567.32 172.75 1569.65 171.75C1571.98 170.583 1573.98 169.333 1575.65 168C1577.32 166.5 1578.15 165.25 1578.15 164.25V101.5C1578.15 99.1667 1576.23 96.75 1572.4 94.25C1568.73 91.75 1564.32 90.5 1559.15 90.5ZM1685.45 111.5V151.5C1685.45 156 1685.53 160.333 1685.7 164.5C1685.86 168.667 1686.45 172 1687.45 174.5C1687.95 175.5 1689.03 176.333 1690.7 177C1692.53 177.667 1694.45 178.167 1696.45 178.5C1698.61 178.667 1700.2 178.833 1701.2 179C1701.86 179.833 1702.11 181.333 1701.95 183.5C1701.95 185.667 1701.7 187.167 1701.2 188C1696.53 187.5 1691.36 187.083 1685.7 186.75C1680.03 186.417 1674.61 186.25 1669.45 186.25C1664.28 186.25 1658.61 186.417 1652.45 186.75C1646.45 187.083 1641.03 187.5 1636.2 188C1635.7 187.167 1635.36 185.667 1635.2 183.5C1635.2 181.333 1635.53 179.833 1636.2 179C1637.36 178.833 1639.03 178.667 1641.2 178.5C1643.53 178.167 1645.78 177.667 1647.95 177C1650.11 176.333 1651.36 175.5 1651.7 174.5C1652.7 172 1653.28 168.833 1653.45 165C1653.61 161.167 1653.7 156.667 1653.7 151.5V123.5C1653.7 122.667 1653.61 120.917 1653.45 118.25C1653.45 115.417 1653.28 112.583 1652.95 109.75C1652.61 106.75 1652.11 104.667 1651.45 103.5C1650.78 102.167 1649.28 101.167 1646.95 100.5C1644.78 99.8333 1642.61 99.3333 1640.45 99C1638.28 98.6667 1636.86 98.5 1636.2 98.5C1636.03 98.3333 1635.86 97.6667 1635.7 96.5C1635.53 95.1667 1635.53 93.9167 1635.7 92.75C1635.86 91.5833 1636.11 91 1636.45 91C1642.61 90.5 1648.7 89.5 1654.7 88C1660.86 86.5 1666.53 84.8333 1671.7 83C1676.86 81.1667 1680.95 79.5 1683.95 78C1684.78 78.1667 1685.7 78.8333 1686.7 80C1687.7 81.1667 1688.2 81.9167 1688.2 82.25C1687.86 83.25 1687.36 85.4167 1686.7 88.75C1686.2 91.9167 1685.86 94.4167 1685.7 96.25C1685.53 98.9167 1685.45 101.917 1685.45 105.25C1685.45 108.583 1685.45 110.667 1685.45 111.5ZM1649.45 36.5C1649.45 31.6667 1651.2 27.5833 1654.7 24.25C1658.2 20.75 1662.36 19 1667.2 19C1672.03 19 1676.2 20.75 1679.7 24.25C1683.2 27.5833 1684.95 31.6667 1684.95 36.5C1684.95 41.3333 1683.2 45.5 1679.7 49C1676.2 52.5 1672.03 54.25 1667.2 54.25C1662.36 54.25 1658.2 52.5 1654.7 49C1651.2 45.5 1649.45 41.3333 1649.45 36.5ZM1766.11 77.5C1772.94 77.5 1779.11 79.0833 1784.61 82.25C1790.11 85.4167 1794.52 89.8333 1797.86 95.5C1801.19 101 1802.86 107.417 1802.86 114.75V160.5C1802.86 163.667 1803.36 166.167 1804.36 168C1805.52 169.667 1806.94 170.5 1808.61 170.5C1810.44 170.5 1811.94 170.167 1813.11 169.5C1814.27 168.667 1815.11 168.167 1815.61 168C1816.77 168.5 1817.36 169.833 1817.36 172C1817.36 173.333 1817.02 174.583 1816.36 175.75C1815.19 176.75 1813.27 178.333 1810.61 180.5C1807.94 182.5 1804.94 184.333 1801.61 186C1798.27 187.667 1794.86 188.5 1791.36 188.5C1787.36 188.5 1783.52 187.167 1779.86 184.5C1776.36 181.833 1774.02 179.083 1772.86 176.25C1772.19 176.917 1770.11 178.333 1766.61 180.5C1763.27 182.5 1759.61 184.417 1755.61 186.25C1751.61 188.083 1748.11 189 1745.11 189C1738.94 189 1733.44 187.583 1728.61 184.75C1723.77 181.75 1719.94 178 1717.11 173.5C1714.44 168.833 1713.11 164.083 1713.11 159.25C1713.11 154.417 1714.44 150.25 1717.11 146.75C1719.77 143.083 1722.69 140.75 1725.86 139.75C1729.02 138.75 1733.36 137.167 1738.86 135C1744.36 132.833 1750.02 130.583 1755.86 128.25C1761.86 125.917 1766.94 124 1771.11 122.5V111C1771.11 104.833 1769.77 99.25 1767.11 94.25C1764.44 89.25 1760.94 86.75 1756.61 86.75C1751.94 86.75 1748.69 88.8333 1746.86 93C1745.19 97 1743.69 101.75 1742.36 107.25C1741.69 109.917 1740.36 112.417 1738.36 114.75C1736.36 116.917 1733.19 118 1728.86 118C1725.69 118 1722.77 116.917 1720.11 114.75C1717.44 112.417 1716.11 109.583 1716.11 106.25C1716.11 104.583 1716.44 102.917 1717.11 101.25C1717.77 99.5833 1718.61 97.9167 1719.61 96.25C1720.44 95.4167 1722.27 94 1725.11 92C1728.11 90 1731.77 87.9167 1736.11 85.75C1740.44 83.4167 1745.19 81.5 1750.36 80C1755.52 78.3333 1760.77 77.5 1766.11 77.5ZM1761.11 171.75C1764.11 171.75 1766.52 171.083 1768.36 169.75C1770.19 168.417 1771.11 167.417 1771.11 166.75V132.5C1768.61 133.667 1765.86 134.833 1762.86 136C1760.02 137.167 1757.36 138.583 1754.86 140.25C1751.52 142.417 1749.19 145.083 1747.86 148.25C1746.52 151.25 1745.94 154.083 1746.11 156.75C1746.27 161.917 1748.02 165.75 1751.36 168.25C1754.69 170.583 1757.94 171.75 1761.11 171.75ZM754.25 276.5C756.25 276.5 759.75 276.5 764.75 276.5C769.917 276.333 775.75 276.167 782.25 276C788.917 275.833 795.667 275.75 802.5 275.75C809.333 275.583 815.5 275.417 821 275.25C826.667 275.083 830.917 275 833.75 275C834.583 281.167 835.667 287.333 837 293.5C838.333 299.667 839.583 305.5 840.75 311C840.417 311.333 839.583 311.667 838.25 312C836.917 312.167 835.833 312.25 835 312.25C833 312.25 831.75 311.583 831.25 310.25C828.583 303.417 825.333 297.667 821.5 293C817.833 288.167 812.25 285.75 804.75 285.75H784.5C781.833 285.75 779.25 285.917 776.75 286.25C774.417 286.417 772.917 287.167 772.25 288.5C771.75 289.833 771.417 291.5 771.25 293.5C771.25 295.5 771.25 297.833 771.25 300.5C771.25 301 771.25 301.5 771.25 302C771.25 302.5 771.25 303 771.25 303.5V347.25C771.25 347.917 772.333 348.5 774.5 349C776.667 349.5 779.083 349.75 781.75 349.75H794.5C799.333 349.75 803 349.333 805.5 348.5C808.167 347.667 810.25 346 811.75 343.5C813.25 341 814.667 337.417 816 332.75C816.333 331.417 817.333 330.75 819 330.75C821.167 330.75 822.667 331.167 823.5 332V379C823.333 379.167 822.75 379.333 821.75 379.5C820.917 379.667 820.083 379.75 819.25 379.75C817.083 379.75 815.917 379.167 815.75 378C814.25 372.167 812.75 368.333 811.25 366.5C809.75 364.667 808.417 363.5 807.25 363C804.417 361.833 798.25 361.25 788.75 361.25C786.583 361.25 784.083 361.333 781.25 361.5C778.583 361.667 776.25 362 774.25 362.5C772.25 363 771.25 363.75 771.25 364.75V402.5C771.25 402.5 771.25 402.667 771.25 403C771.25 403.833 771.25 405.5 771.25 408C771.25 410.333 771.333 412.833 771.5 415.5C771.833 418.167 772.333 420.25 773 421.75C773.833 423.417 775.917 424.667 779.25 425.5C782.583 426.333 785.833 426.75 789 426.75H805C809.667 426.75 813.917 426.083 817.75 424.75C821.75 423.417 825.083 421.417 827.75 418.75C830.417 416.083 832.75 412.917 834.75 409.25C836.75 405.583 838.833 401 841 395.5C841.333 394.5 842.417 394 844.25 394C845.583 394 847.083 394.167 848.75 394.5C850.417 394.833 851.417 395.167 851.75 395.5C850.25 399.833 848.583 404.583 846.75 409.75C844.917 414.917 843.25 419.917 841.75 424.75C840.25 429.583 839.167 433.833 838.5 437.5C836.833 437.5 833 437.5 827 437.5C821 437.5 813.75 437.5 805.25 437.5C796.75 437.5 787.833 437.5 778.5 437.5C769.333 437.5 760.5 437.5 752 437.5C743.667 437.5 736.5 437.5 730.5 437.5C724.667 437.667 720.917 437.75 719.25 437.75C718.75 436.917 718.417 435.417 718.25 433.25C718.25 431.083 718.583 429.583 719.25 428.75C720.417 428.583 722.167 428.417 724.5 428.25C726.833 427.917 729.083 427.5 731.25 427C733.417 426.333 734.667 425.5 735 424.5C736 422 736.583 418.833 736.75 415C736.917 411.167 737 406.667 737 401.5V311.75C737 306.417 736.917 301.917 736.75 298.25C736.583 294.417 736 291.25 735 288.75C734.667 287.583 733.417 286.75 731.25 286.25C729.083 285.75 726.833 285.417 724.5 285.25C722.167 285.083 720.417 285 719.25 285C718.583 284.167 718.25 282.583 718.25 280.25C718.417 277.917 718.75 276.417 719.25 275.75C724.75 276.083 730.667 276.333 737 276.5C743.333 276.5 749.083 276.5 754.25 276.5ZM917.229 327.5C924.062 327.5 930.229 329.083 935.729 332.25C941.229 335.417 945.645 339.833 948.979 345.5C952.312 351 953.979 357.417 953.979 364.75V410.5C953.979 413.667 954.479 416.167 955.479 418C956.645 419.667 958.062 420.5 959.729 420.5C961.562 420.5 963.062 420.167 964.229 419.5C965.395 418.667 966.229 418.167 966.729 418C967.895 418.5 968.479 419.833 968.479 422C968.479 423.333 968.145 424.583 967.479 425.75C966.312 426.75 964.395 428.333 961.729 430.5C959.062 432.5 956.062 434.333 952.729 436C949.395 437.667 945.979 438.5 942.479 438.5C938.479 438.5 934.645 437.167 930.979 434.5C927.479 431.833 925.145 429.083 923.979 426.25C923.312 426.917 921.229 428.333 917.729 430.5C914.395 432.5 910.729 434.417 906.729 436.25C902.729 438.083 899.229 439 896.229 439C890.062 439 884.562 437.583 879.729 434.75C874.895 431.75 871.062 428 868.229 423.5C865.562 418.833 864.229 414.083 864.229 409.25C864.229 404.417 865.562 400.25 868.229 396.75C870.895 393.083 873.812 390.75 876.979 389.75C880.145 388.75 884.479 387.167 889.979 385C895.479 382.833 901.145 380.583 906.979 378.25C912.979 375.917 918.062 374 922.229 372.5V361C922.229 354.833 920.895 349.25 918.229 344.25C915.562 339.25 912.062 336.75 907.729 336.75C903.062 336.75 899.812 338.833 897.979 343C896.312 347 894.812 351.75 893.479 357.25C892.812 359.917 891.479 362.417 889.479 364.75C887.479 366.917 884.312 368 879.979 368C876.812 368 873.895 366.917 871.229 364.75C868.562 362.417 867.229 359.583 867.229 356.25C867.229 354.583 867.562 352.917 868.229 351.25C868.895 349.583 869.729 347.917 870.729 346.25C871.562 345.417 873.395 344 876.229 342C879.229 340 882.895 337.917 887.229 335.75C891.562 333.417 896.312 331.5 901.479 330C906.645 328.333 911.895 327.5 917.229 327.5ZM912.229 421.75C915.229 421.75 917.645 421.083 919.479 419.75C921.312 418.417 922.229 417.417 922.229 416.75V382.5C919.729 383.667 916.979 384.833 913.979 386C911.145 387.167 908.479 388.583 905.979 390.25C902.645 392.417 900.312 395.083 898.979 398.25C897.645 401.25 897.062 404.083 897.229 406.75C897.395 411.917 899.145 415.75 902.479 418.25C905.812 420.583 909.062 421.75 912.229 421.75ZM1023.47 332.5H1051.22C1051.72 332.5 1052.05 332.917 1052.22 333.75C1052.55 334.417 1052.72 335.083 1052.72 335.75C1052.72 336.917 1052.14 338.417 1050.97 340.25C1049.8 341.917 1048.55 343.167 1047.22 344H1023.47V404.5C1023.47 411 1024.55 415.75 1026.72 418.75C1028.89 421.583 1032.22 423 1036.72 423C1039.55 423 1042.3 422.167 1044.97 420.5C1047.8 418.667 1049.39 417.583 1049.72 417.25C1050.05 417.417 1050.39 417.917 1050.72 418.75C1051.05 419.417 1051.22 420.083 1051.22 420.75C1051.22 421.417 1050.97 422.25 1050.47 423.25C1050.14 424.25 1049.8 424.917 1049.47 425.25C1048.8 426.083 1047.22 427.583 1044.72 429.75C1042.22 431.917 1039.14 434 1035.47 436C1031.8 437.833 1027.8 438.75 1023.47 438.75C1018.47 438.75 1013.47 437.667 1008.47 435.5C1003.64 433.333 999.635 429.667 996.469 424.5C993.302 419.167 991.719 412 991.719 403V344H974.469C973.802 343.667 973.385 343.167 973.219 342.5C973.219 341.833 973.219 341.25 973.219 340.75C974.552 338.917 975.802 337.417 976.969 336.25C978.135 334.917 979.469 333.667 980.969 332.5H991.719V319.5C996.385 315.667 1000.89 311.333 1005.22 306.5C1009.72 301.667 1013.8 297.417 1017.47 293.75C1018.8 292.917 1020.05 292.5 1021.22 292.5C1022.55 292.5 1023.3 292.917 1023.47 293.75V332.5ZM1109.72 327.5C1115.55 327.5 1120.55 328.083 1124.72 329.25C1128.89 330.417 1132.97 331.417 1136.97 332.25C1137.64 334.917 1138.39 338.417 1139.22 342.75C1140.05 346.917 1140.72 350.833 1141.22 354.5C1141.89 358.167 1142.22 360.75 1142.22 362.25C1142.22 362.75 1141.64 363.167 1140.47 363.5C1139.47 363.833 1138.55 364 1137.72 364C1136.72 364 1135.89 363.833 1135.22 363.5C1134.55 363 1133.8 362.5 1132.97 362C1132.14 358.333 1130.8 354.667 1128.97 351C1127.14 347.167 1124.47 344 1120.97 341.5C1117.47 338.833 1112.89 337.5 1107.22 337.5C1103.22 337.5 1099.89 338.583 1097.22 340.75C1094.55 342.917 1093.22 346.167 1093.22 350.5C1093.22 354.667 1094.55 358.083 1097.22 360.75C1099.89 363.25 1103.14 365.333 1106.97 367C1110.97 368.667 1114.72 370.417 1118.22 372.25C1122.55 374.25 1126.72 376.5 1130.72 379C1134.72 381.5 1137.97 384.75 1140.47 388.75C1143.14 392.75 1144.47 398.25 1144.47 405.25C1144.47 413.417 1142.22 420 1137.72 425C1133.39 429.833 1127.55 433.417 1120.22 435.75C1112.89 437.917 1104.97 439 1096.47 439C1091.14 439 1085.8 438.333 1080.47 437C1075.14 435.5 1070.97 434.417 1067.97 433.75C1067.8 432.417 1067.55 430.167 1067.22 427C1067.05 423.833 1066.8 420.5 1066.47 417C1066.3 413.333 1066.14 410.083 1065.97 407.25C1065.97 404.417 1065.97 402.667 1065.97 402C1065.97 401.167 1066.39 400.75 1067.22 400.75C1068.22 400.583 1069.05 400.5 1069.72 400.5C1070.55 400.5 1071.55 400.667 1072.72 401C1073.89 401.333 1074.64 401.917 1074.97 402.75C1076.14 409.75 1078.22 415.167 1081.22 419C1084.22 422.833 1087.55 425.5 1091.22 427C1094.89 428.5 1098.3 429.25 1101.47 429.25C1105.8 429.25 1109.14 427.917 1111.47 425.25C1113.97 422.417 1115.22 419.333 1115.22 416C1115.22 411.833 1113.89 408.583 1111.22 406.25C1108.72 403.75 1105.55 401.667 1101.72 400C1097.89 398.167 1094.05 396.25 1090.22 394.25C1083.05 390.417 1076.89 386 1071.72 381C1066.72 376 1064.22 369.417 1064.22 361.25C1064.22 355.083 1065.64 349.917 1068.47 345.75C1071.47 341.417 1075.22 337.917 1079.72 335.25C1084.39 332.583 1089.3 330.667 1094.47 329.5C1099.8 328.167 1104.89 327.5 1109.72 327.5Z" fill="#91263A"/>
</svg>
